<?xml version="1.0" encoding="UTF-8" standalone="no"?>
<svg
   xmlns:dc="http://purl.org/dc/elements/1.1/"
   xmlns:cc="http://creativecommons.org/ns#"
   xmlns:rdf="http://www.w3.org/1999/02/22-rdf-syntax-ns#"
   xmlns:svg="http://www.w3.org/2000/svg"
   xmlns="http://www.w3.org/2000/svg"
   xmlns:sodipodi="http://sodipodi.sourceforge.net/DTD/sodipodi-0.dtd"
   xmlns:inkscape="http://www.inkscape.org/namespaces/inkscape"
   id="svg8"
   version="1.1"
   viewBox="0 0 1016 571.5"
   height="2160"
   width="3840"
   inkscape:version="1.0.1 (3bc2e813f5, 2020-09-07)"
   sodipodi:docname="connect1.svg">
  <defs
     id="defs2" />
  <sodipodi:namedview
     id="base"
     pagecolor="#111111"
     bordercolor="#666666"
     borderopacity="1.0"
     inkscape:pageopacity="0"
     inkscape:pageshadow="2"
     inkscape:zoom="0.24748737"
     inkscape:cx="2289.6522"
     inkscape:cy="1389.2986"
     inkscape:document-units="mm"
     inkscape:current-layer="layer1"
     inkscape:document-rotation="0"
     showgrid="false"
     units="px"
     inkscape:window-width="1858"
     inkscape:window-height="1057"
     inkscape:window-x="-8"
     inkscape:window-y="-8"
     inkscape:window-maximized="1" />
  <metadata
     id="metadata5">
    <rdf:RDF>
      <cc:Work
         rdf:about="">
        <dc:format>image/svg+xml</dc:format>
        <dc:type
           rdf:resource="http://purl.org/dc/dcmitype/StillImage" />
        <dc:title></dc:title>
      </cc:Work>
    </rdf:RDF>
  </metadata>
  <g
     inkscape:label="Layer 1"
     inkscape:groupmode="layer"
     id="layer1">
    <path
       style="opacity:1;fill:#000000;fill-opacity:0;stroke:#0070a5;stroke-width:6.865;stroke-linecap:round;stroke-linejoin:round;stroke-miterlimit:4;stroke-dasharray:none;stroke-opacity:1"
       d="M 1017.7623,27.79603 863.8151,67.351921 873.4368,136.842 833.88091,253.37152 947.20319,165.7071 914.06178,227.71363 873.4368,137.91108 754.76914,165.7071 l 82.31899,88.73349 128.2894,-7.48355 -51.31575,-19.24341 17.10523,130.42754 -80.18084,10.69078 130.42751,-74.83546 -208.47023,9.62169 78.04272,65.21377 178.53603,18.17431 -64.14467,59.86838 -34.21052,-85.52624 -133.63474,83.38809 h 164.638 l 135.77293,6.41448 8.5526,-97.28613 -125.08212,-63.07561 -12.82893,153.94726 80.18085,-171.05249 67.3519,-19.24341 -72.6973,-58.7993 -100.49334,-36.34865 87.66444,-75.904551 91.9407,11.75986 -74.8355,113.322281 -99.42424,-125.082141 -76.97361,57.730221 84.45717,23.51972 -91.94072,-97.286109 101.56243,179.605119 80.18077,-44.90128 5.3454,69.49006 -85.52617,-24.58878 69.49007,-162.499871 -86.59534,-1.06908 -84.45716,-16.036168 -27.79604,180.674189 14.96711,120.80584 -47.03945,78.04269 -31.00327,-143.25646 65.21376,-56.66114 75.90457,-19.24341 -153.94726,-59.86837 282.23658,29.93419 -13.898,-114.391361 h -80.18084 l 76.97364,-54.522981 8.5526,54.522981 z"
       id="path1183"
       sodipodi:nodetypes="cccccccccccccccccccccccccccccccccccccccccccccccccccccccc" />
    <circle
       style="fill:#0070a5;fill-opacity:1;stroke:#0070a5;stroke-width:3.66501;stroke-linejoin:round;stroke-miterlimit:4;stroke-dasharray:none;stroke-opacity:1"
       id="path837-6"
       cx="838.15723"
       cy="248.02614"
       r="12.294398" />
    <circle
       style="fill:#0070a5;fill-opacity:1;stroke:#0070a5;stroke-width:3.66501;stroke-linejoin:round;stroke-miterlimit:4;stroke-dasharray:none;stroke-opacity:1"
       id="path837-67"
       cx="931.16705"
       cy="358.14117"
       r="12.294398" />
    <circle
       style="fill:#0070a5;fill-opacity:1;stroke:#0070a5;stroke-width:3.66501;stroke-linejoin:round;stroke-miterlimit:4;stroke-dasharray:none;stroke-opacity:1"
       id="path837-67-9-8"
       cx="801.80853"
       cy="442.59836"
       r="12.294398" />
    <circle
       style="fill:#0070a5;fill-opacity:1;stroke:#0070a5;stroke-width:3.66501;stroke-linejoin:round;stroke-miterlimit:4;stroke-dasharray:none;stroke-opacity:1"
       id="path837-67-9-2-1-0-9-4"
       cx="847.77899"
       cy="368.83197"
       r="12.294398" />
    <circle
       style="fill:#0070a5;fill-opacity:1;stroke:#0070a5;stroke-width:3.66501;stroke-linejoin:round;stroke-miterlimit:4;stroke-dasharray:none;stroke-opacity:1"
       id="path837-67-9-2-1-0-9-4-7"
       cx="967.51569"
       cy="444.73648"
       r="12.294398" />
    <circle
       style="fill:#0070a5;fill-opacity:1;stroke:#0070a5;stroke-width:3.66501;stroke-linejoin:round;stroke-miterlimit:4;stroke-dasharray:none;stroke-opacity:1"
       id="path837-67-9-2-1-0-9-4-7-2-9-2"
       cx="982.48279"
       cy="292.92743"
       r="12.294398" />
    <circle
       style="fill:#0070a5;fill-opacity:1;stroke:#0070a5;stroke-width:3.66501;stroke-linejoin:round;stroke-miterlimit:4;stroke-dasharray:none;stroke-opacity:1"
       id="path837-67-9-2-1-0-9-4-7-2-9-7"
       cx="967.51569"
       cy="248.02611"
       r="12.294398" />
    <circle
       style="fill:#0070a5;fill-opacity:1;stroke:#0070a5;stroke-width:3.66501;stroke-linejoin:round;stroke-miterlimit:4;stroke-dasharray:none;stroke-opacity:1"
       id="path837-67-9-2-1-04"
       cx="1108.6339"
       cy="354.93393"
       r="12.294398" />
    <circle
       style="fill:#0070a5;fill-opacity:1;stroke:#0070a5;stroke-width:3.66501;stroke-linejoin:round;stroke-miterlimit:4;stroke-dasharray:none;stroke-opacity:1"
       id="path837-67-9-2-1-58"
       cx="1101.1504"
       cy="454.35818"
       r="12.294398" />
    <path
       style="fill:none;stroke:#0070a5;stroke-width:7.965;stroke-linecap:round;stroke-linejoin:round;stroke-miterlimit:4;stroke-dasharray:none;stroke-opacity:1"
       d="m 850.98615,368.83195 63.07561,-141.11832 51.31575,19.24341 -34.21052,114.39136 50.24668,-67.35191 -16.03616,-47.03945 64.14469,140.04922 -225.5755,59.86838 33.14142,-192.43405 94.07887,106.90781 119.73671,-89.80258 -21.3815,115.46044"
       id="path1306" />
    <circle
       style="fill:#0070a5;fill-opacity:1;stroke:#0070a5;stroke-width:3.66501;stroke-linejoin:round;stroke-miterlimit:4;stroke-dasharray:none;stroke-opacity:1"
       id="path837-67-4"
       cx="1028.4531"
       cy="384.86813"
       r="12.294398" />
    <g
       id="g1428">
      <circle
         style="fill:#0070a5;fill-opacity:1;stroke:#0070a5;stroke-width:3.66501;stroke-linejoin:round;stroke-miterlimit:4;stroke-dasharray:none;stroke-opacity:1"
         id="path837"
         cx="867.55688"
         cy="67.886459"
         r="12.294398" />
      <circle
         style="fill:#0070a5;fill-opacity:1;stroke:#0070a5;stroke-width:3.66501;stroke-linejoin:round;stroke-miterlimit:4;stroke-dasharray:none;stroke-opacity:1"
         id="path837-67-9"
         cx="952.54858"
         cy="161.43077"
         r="12.294398" />
      <circle
         style="fill:#0070a5;fill-opacity:1;stroke:#0070a5;stroke-width:3.66501;stroke-linejoin:round;stroke-miterlimit:4;stroke-dasharray:none;stroke-opacity:1"
         id="path837-67-9-2"
         cx="760.11456"
         cy="163.56894"
         r="12.294398" />
      <circle
         style="fill:#0070a5;fill-opacity:1;stroke:#0070a5;stroke-width:3.66501;stroke-linejoin:round;stroke-miterlimit:4;stroke-dasharray:none;stroke-opacity:1"
         id="path837-67-9-2-1"
         cx="873.43683"
         cy="140.04922"
         r="12.294398" />
      <circle
         style="fill:#0070a5;fill-opacity:1;stroke:#0070a5;stroke-width:3.66501;stroke-linejoin:round;stroke-miterlimit:4;stroke-dasharray:none;stroke-opacity:1"
         id="path837-67-9-2-1-0"
         cx="918.33807"
         cy="228.7827"
         r="12.294398" />
      <circle
         style="fill:#0070a5;fill-opacity:1;stroke:#0070a5;stroke-width:3.66501;stroke-linejoin:round;stroke-miterlimit:4;stroke-dasharray:none;stroke-opacity:1"
         id="path837-67-9-2-1-0-9"
         cx="772.94348"
         cy="304.68726"
         r="12.294398" />
      <circle
         style="fill:#0070a5;fill-opacity:1;stroke:#0070a5;stroke-width:3.66501;stroke-linejoin:round;stroke-miterlimit:4;stroke-dasharray:none;stroke-opacity:1"
         id="path837-67-9-2-1-0-9-4-7-2-9"
         cx="948.27234"
         cy="79.111778"
         r="12.294398" />
      <circle
         style="fill:#0070a5;fill-opacity:1;stroke:#0070a5;stroke-width:3.66501;stroke-linejoin:round;stroke-miterlimit:4;stroke-dasharray:none;stroke-opacity:1"
         id="path837-67-9-2-1-9"
         cx="1032.7294"
         cy="88.733482"
         r="12.294398"
         inkscape:transform-center-x="43.832202"
         inkscape:transform-center-y="62.00653" />
      <circle
         style="fill:#0070a5;fill-opacity:1;stroke:#0070a5;stroke-width:3.66501;stroke-linejoin:round;stroke-miterlimit:4;stroke-dasharray:none;stroke-opacity:1"
         id="path837-67-9-2-1-5"
         cx="1045.5583"
         cy="198.84853"
         r="12.294398" />
      <circle
         style="fill:#0070a5;fill-opacity:1;stroke:#0070a5;stroke-width:3.66501;stroke-linejoin:round;stroke-miterlimit:4;stroke-dasharray:none;stroke-opacity:1"
         id="path837-67-9-2-1-2"
         cx="1116.1176"
         cy="260.85507"
         r="12.294398" />
      <circle
         style="fill:#0070a5;fill-opacity:1;stroke:#0070a5;stroke-width:3.66501;stroke-linejoin:round;stroke-miterlimit:4;stroke-dasharray:none;stroke-opacity:1"
         id="path837-67-5"
         cx="1049.8347"
         cy="271.54584"
         r="12.294398" />
      <circle
         style="fill:#0070a5;fill-opacity:1;stroke:#0070a5;stroke-width:3.66501;stroke-linejoin:round;stroke-miterlimit:4;stroke-dasharray:none;stroke-opacity:1"
         id="path837-67-7"
         cx="1115.0483"
         cy="88.733482"
         r="12.294398" />
      <circle
         style="fill:#0070a5;fill-opacity:1;stroke:#0070a5;stroke-width:3.66501;stroke-linejoin:round;stroke-miterlimit:4;stroke-dasharray:none;stroke-opacity:1"
         id="path837-67-1"
         cx="1019.9005"
         cy="27.79603"
         r="12.294398" />
    </g>
    <g
       id="g1407"
       transform="matrix(0.26458333,0,0,0.26458333,130.14618,175.04745)"
       style="fill:#0070a5;fill-opacity:1;stroke-width:1.00157;stroke-miterlimit:4;stroke-dasharray:none">
      <g
         id="g1351"
         style="fill:#0070a5;fill-opacity:1;stroke-width:1.00157;stroke-miterlimit:4;stroke-dasharray:none">
	<path
   d="M 397.7,24.6 C 356.3,8.7 301.5,0 243.5,0 185.5,0 130.7,8.7 89.3,24.6 43.8,42.1 18.8,66.9 18.8,94.5 v 298 c 0,27.6 25,52.4 70.5,69.9 41.4,15.9 96.2,24.6 154.2,24.6 58,0 112.8,-8.7 154.2,-24.6 45.5,-17.4 70.5,-42.3 70.5,-69.9 v -298 c 0,-27.6 -25,-52.4 -70.5,-69.9 z m 43.5,367.9 c 0,15.2 -19.9,31.9 -53.2,44.7 C 349.6,451.9 298.3,460 243.5,460 188.7,460 137.4,451.9 99,437.2 65.7,424.4 45.8,407.7 45.8,392.5 v -51.4 c 11.2,8.8 25.8,16.7 43.5,23.4 41.4,15.9 96.2,24.6 154.2,24.6 58,0 112.8,-8.7 154.2,-24.6 17.7,-6.8 32.3,-14.7 43.5,-23.4 z m 0,-97.8 c 0,15.2 -19.9,31.9 -53.2,44.7 -38.4,14.7 -89.7,22.8 -144.5,22.8 C 188.7,362.2 137.4,354.1 99,339.4 65.7,326.6 45.8,309.9 45.8,294.7 v -52.9 c 11.2,8.8 25.8,16.7 43.5,23.4 41.4,15.9 96.2,24.6 154.2,24.6 58,0 112.8,-8.7 154.2,-24.6 17.7,-6.8 32.3,-14.7 43.5,-23.4 z m 0,-99.4 c 0,15.2 -19.9,31.9 -53.2,44.7 -38.4,14.7 -89.7,22.8 -144.5,22.8 C 188.7,262.8 137.4,254.7 99,240 65.7,227.2 45.8,210.5 45.8,195.3 v -1.5 -52.9 c 11.2,8.8 25.8,16.7 43.5,23.4 41.4,15.9 96.2,24.6 154.2,24.6 58,0 112.8,-8.7 154.2,-24.6 17.7,-6.8 32.3,-14.7 43.5,-23.4 z M 388,139.1 C 349.6,153.8 298.3,161.9 243.5,161.9 188.7,161.9 137.4,153.8 99,139.1 65.7,126.3 45.8,109.6 45.8,94.4 45.8,79.2 65.7,62.5 99,49.7 137.4,35 188.7,26.9 243.5,26.9 c 54.8,0 106.1,8.1 144.5,22.8 33.3,12.8 53.2,29.5 53.2,44.7 0,15.2 -19.9,32 -53.2,44.7 z"
   id="path1349"
   style="fill:#0070a5;fill-opacity:1;stroke-width:1.00157;stroke-miterlimit:4;stroke-dasharray:none" />

</g>
      <g
         id="g1353"
         style="fill:#0070a5;fill-opacity:1;stroke-width:1.00157;stroke-miterlimit:4;stroke-dasharray:none">
</g>
      <g
         id="g1355"
         style="fill:#0070a5;fill-opacity:1;stroke-width:1.00157;stroke-miterlimit:4;stroke-dasharray:none">
</g>
      <g
         id="g1357"
         style="fill:#0070a5;fill-opacity:1;stroke-width:1.00157;stroke-miterlimit:4;stroke-dasharray:none">
</g>
      <g
         id="g1359"
         style="fill:#0070a5;fill-opacity:1;stroke-width:1.00157;stroke-miterlimit:4;stroke-dasharray:none">
</g>
      <g
         id="g1361"
         style="fill:#0070a5;fill-opacity:1;stroke-width:1.00157;stroke-miterlimit:4;stroke-dasharray:none">
</g>
      <g
         id="g1363"
         style="fill:#0070a5;fill-opacity:1;stroke-width:1.00157;stroke-miterlimit:4;stroke-dasharray:none">
</g>
      <g
         id="g1365"
         style="fill:#0070a5;fill-opacity:1;stroke-width:1.00157;stroke-miterlimit:4;stroke-dasharray:none">
</g>
      <g
         id="g1367"
         style="fill:#0070a5;fill-opacity:1;stroke-width:1.00157;stroke-miterlimit:4;stroke-dasharray:none">
</g>
      <g
         id="g1369"
         style="fill:#0070a5;fill-opacity:1;stroke-width:1.00157;stroke-miterlimit:4;stroke-dasharray:none">
</g>
      <g
         id="g1371"
         style="fill:#0070a5;fill-opacity:1;stroke-width:1.00157;stroke-miterlimit:4;stroke-dasharray:none">
</g>
      <g
         id="g1373"
         style="fill:#0070a5;fill-opacity:1;stroke-width:1.00157;stroke-miterlimit:4;stroke-dasharray:none">
</g>
      <g
         id="g1375"
         style="fill:#0070a5;fill-opacity:1;stroke-width:1.00157;stroke-miterlimit:4;stroke-dasharray:none">
</g>
      <g
         id="g1377"
         style="fill:#0070a5;fill-opacity:1;stroke-width:1.00157;stroke-miterlimit:4;stroke-dasharray:none">
</g>
      <g
         id="g1379"
         style="fill:#0070a5;fill-opacity:1;stroke-width:1.00157;stroke-miterlimit:4;stroke-dasharray:none">
</g>
      <g
         id="g1381"
         style="fill:#0070a5;fill-opacity:1;stroke-width:1.00157;stroke-miterlimit:4;stroke-dasharray:none">
</g>
    </g>
    <path
       style="fill:#f9f9f9;stroke:#f9f9f9;stroke-width:7.565;stroke-linecap:round;stroke-linejoin:round;stroke-miterlimit:4;stroke-dasharray:none;stroke-opacity:1"
       d="M 273.68399,233.05903 732.3185,168.91434"
       id="path1409"
       sodipodi:nodetypes="cc" />
    <path
       style="fill:#f9f9f9;stroke:#f9f9f9;stroke-width:7.565;stroke-linecap:round;stroke-linejoin:round;stroke-miterlimit:4;stroke-dasharray:none;stroke-opacity:1"
       d="m 275.82214,267.26952 469.32529,38.48681"
       id="path1411"
       sodipodi:nodetypes="cc" />
    <path
       style="fill:#f9f9f9;stroke:#f9f9f9;stroke-width:7.565;stroke-linecap:round;stroke-linejoin:round;stroke-miterlimit:4;stroke-dasharray:none;stroke-opacity:1"
       d="m 275.82213,249.0952 523.84828,0"
       id="path1413"
       sodipodi:nodetypes="cc" />
    <path
       style="fill:#f9f9f9;stroke:#f9f9f9;stroke-width:7.56499;stroke-linecap:round;stroke-linejoin:round;stroke-miterlimit:4;stroke-dasharray:none;stroke-opacity:1"
       d="M 273.14945,281.70209 776.68526,434.58025"
       id="path1411-3"
       sodipodi:nodetypes="cc" />
    <path
       style="fill:#f9f9f9;stroke:#f9f9f9;stroke-width:7.56499;stroke-linecap:round;stroke-linejoin:round;stroke-miterlimit:4;stroke-dasharray:none;stroke-opacity:1"
       d="M 271.01129,214.8847 842.9681,70.559153"
       id="path1409-3"
       sodipodi:nodetypes="cc" />
    <rect
       style="opacity:1;fill:#111111;fill-opacity:1;stroke:none;stroke-width:7.56499;stroke-linecap:round;stroke-linejoin:round;stroke-miterlimit:4;stroke-dasharray:none;stroke-opacity:1"
       id="rect1464"
       width="197.77945"
       height="511.01932"
       x="1019.9005"
       y="-29.934185" />
  </g>
</svg>
